<?xml version="1.0" encoding="UTF-8"?>
<svg xmlns="http://www.w3.org/2000/svg" width="1400" height="788" viewBox="0 0 1400 788" role="img" aria-label="프로세스 종료까지 고려한 UI State 저장 전략">
  <defs>
    <marker id="arrow" viewBox="0 0 12 12" refX="10" refY="6" markerWidth="7" markerHeight="7" orient="auto-start-reverse">
      <path d="M 0 0 L 12 6 L 0 12 z" fill="#2f6fed"/>
    </marker>
    <filter id="shadow" x="-20%" y="-20%" width="140%" height="140%">
      <feDropShadow dx="0" dy="18" stdDeviation="18" flood-color="#17202a" flood-opacity="0.16"/>
    </filter>
    <linearGradient id="phone" x1="0" y1="0" x2="1" y2="1">
      <stop offset="0%" stop-color="#ffffff"/>
      <stop offset="100%" stop-color="#dbe8ff"/>
    </linearGradient>
  </defs>
  <rect width="1400" height="788" fill="#f3f7ff"/>
  <circle cx="1160" cy="160" r="190" fill="#dbe8ff" opacity="0.75"/>
  <circle cx="210" cy="675" r="260" fill="#dbe8ff" opacity="0.65"/>
  <g opacity="0.26">
    <circle cx="980" cy="430" r="4" fill="#2f6fed"/><circle cx="1022" cy="430" r="4" fill="#2f6fed"/><circle cx="1064" cy="430" r="4" fill="#2f6fed"/><circle cx="1106" cy="430" r="4" fill="#2f6fed"/><circle cx="1148" cy="430" r="4" fill="#2f6fed"/><circle cx="980" cy="472" r="4" fill="#2f6fed"/><circle cx="1022" cy="472" r="4" fill="#2f6fed"/><circle cx="1064" cy="472" r="4" fill="#2f6fed"/><circle cx="1106" cy="472" r="4" fill="#2f6fed"/><circle cx="1148" cy="472" r="4" fill="#2f6fed"/><circle cx="980" cy="514" r="4" fill="#2f6fed"/><circle cx="1022" cy="514" r="4" fill="#2f6fed"/><circle cx="1064" cy="514" r="4" fill="#2f6fed"/><circle cx="1106" cy="514" r="4" fill="#2f6fed"/><circle cx="1148" cy="514" r="4" fill="#2f6fed"/><circle cx="980" cy="556" r="4" fill="#2f6fed"/><circle cx="1022" cy="556" r="4" fill="#2f6fed"/><circle cx="1064" cy="556" r="4" fill="#2f6fed"/><circle cx="1106" cy="556" r="4" fill="#2f6fed"/><circle cx="1148" cy="556" r="4" fill="#2f6fed"/>
  </g>

  <text x="110" y="105" font-family="Arial, Apple SD Gothic Neo, sans-serif" font-size="32" fill="#2f6fed" font-weight="800">Android Notes</text>
  <text x="110" y="153" font-family="Arial, Apple SD Gothic Neo, sans-serif" font-size="43" fill="#1f2937" font-weight="800">프로세스 종료까지 고려한 UI State 저장...</text>

  <g filter="url(#shadow)">
    <rect x="120" y="245" width="285" height="430" rx="38" fill="#111827"/>
    <rect x="139" y="270" width="247" height="374" rx="28" fill="url(#phone)"/>
    <rect x="166" y="307" width="190" height="104" rx="18" fill="#ffffff"/>
    <rect x="186" y="429" width="150" height="18" rx="9" fill="#2f6fed" opacity="0.92"/>
    <rect x="186" y="466" width="112" height="12" rx="6" fill="#94a3b8" opacity="0.75"/>
    <rect x="166" y="505" width="84" height="74" rx="18" fill="#ffffff"/>
    <rect x="272" y="505" width="84" height="74" rx="18" fill="#ffffff"/>
    <circle cx="208" cy="542" r="18" fill="#2f6fed" opacity="0.28"/>
    <circle cx="314" cy="542" r="18" fill="#2f6fed" opacity="0.28"/>
    <rect x="194" y="613" width="126" height="9" rx="4.5" fill="#94a3b8" opacity="0.9"/>
  </g>

  <g>
    <circle cx="525" cy="394" r="88" fill="#1f2937" filter="url(#shadow)"/>
    <circle cx="525" cy="394" r="61" fill="#2f6fed" opacity="0.95"/>
    <rect x="485" y="356" width="80" height="80" rx="20" fill="#ffffff" opacity="0.94"/>
    <path d="M 405 394 C 445 372, 465 372, 492 386" fill="none" stroke="#2f6fed" stroke-width="5" stroke-linecap="round" marker-end="url(#arrow)"/>
    <text x="458" y="515" font-family="Arial, Apple SD Gothic Neo, sans-serif" font-size="20" fill="#1f2937" font-weight="800">state flow</text>
  </g>

  <path d="M 525 214 C 570 194, 635 234, 690 214" fill="none" stroke="#2f6fed" stroke-width="5" stroke-linecap="round" marker-end="url(#arrow)"/><path d="M 555 286 C 600 266, 715 306, 770 286" fill="none" stroke="#2f6fed" stroke-width="5" stroke-linecap="round" marker-end="url(#arrow)"/><path d="M 525 358 C 570 338, 635 378, 690 358" fill="none" stroke="#2f6fed" stroke-width="5" stroke-linecap="round" marker-end="url(#arrow)"/><path d="M 555 430 C 600 410, 715 450, 770 430" fill="none" stroke="#2f6fed" stroke-width="5" stroke-linecap="round" marker-end="url(#arrow)"/>
  
      <rect x="710" y="190" width="270" height="48" rx="14" fill="#ffffff" stroke="#dbe8ff" stroke-width="2"/>
      <circle cx="738" cy="214" r="11" fill="#2f6fed" opacity="0.9"/>
      <text x="762" y="220" font-family="Arial, Apple SD Gothic Neo, sans-serif" font-size="21" fill="#1f2937" font-weight="700">Input</text>
    
      <rect x="790" y="262" width="270" height="48" rx="14" fill="#ffffff" stroke="#dbe8ff" stroke-width="2"/>
      <circle cx="818" cy="286" r="11" fill="#2f6fed" opacity="0.8200000000000001"/>
      <text x="842" y="292" font-family="Arial, Apple SD Gothic Neo, sans-serif" font-size="21" fill="#1f2937" font-weight="700">Save</text>
    
      <rect x="710" y="334" width="270" height="48" rx="14" fill="#ffffff" stroke="#dbe8ff" stroke-width="2"/>
      <circle cx="738" cy="358" r="11" fill="#2f6fed" opacity="0.74"/>
      <text x="762" y="364" font-family="Arial, Apple SD Gothic Neo, sans-serif" font-size="21" fill="#1f2937" font-weight="700">Restore</text>
    
      <rect x="790" y="406" width="270" height="48" rx="14" fill="#ffffff" stroke="#dbe8ff" stroke-width="2"/>
      <circle cx="818" cy="430" r="11" fill="#2f6fed" opacity="0.66"/>
      <text x="842" y="436" font-family="Arial, Apple SD Gothic Neo, sans-serif" font-size="21" fill="#1f2937" font-weight="700">Render</text>
    
</svg>